{"title":"13 Ghosts of Scooby-Doo 1985 S01 1080p AMZN WEBRip x264-CasStudi","magnet":"magnet:?xt=urn:btih:37a6075412652dd809de47d787e7523be2e3a6ee&dn=13+Ghosts+of+Scooby-Doo+1985+S01+1080p+AMZN+WEBRip+x264-CasStudi&tr=udp%3A%2F%2Ftracker.leechers-paradise.org%3A6969&tr=udp%3A%2F%2Fzer0day.ch%3A1337&tr=udp%3A%2F%2Fopen.demonii.com%3A1337&tr=udp%3A%2F%2Ftracker.coppersurfer.tk%3A6969&tr=udp%3A%2F%2Fexodus.desync.com%3A6969","uploader":"__rick_","categoryP":"video","categoryS":"hd___tv_shows","size":"32158842557","seeders":"1","leechers":"5","description":"13 Ghosts of Scooby-Doo 1985 Season 1 S01 1080p AMZN WEBRip x264-CasStudio [RiCK]\r\n\r\nShaggy and Scooby and friends must return 13 ghosts to a magic chest which they inadvertently released. \r\n\r\n13.Ghosts.of.Scooby-Doo.S01E10.Scooby.in.Kwackyland.1080p.AMZN.WEBRip.DD2.0.x264-CasStudio.mkv\r\nFile size                                : 2.40 GiB\r\nDuration                                 : 23 min 42 s\r\nOverall bit rate mode                    : Variable\r\nOverall bit rate                         : 14.5 Mb/s\r\n\r\nVideo\r\nID                                       : 1\r\nFormat                                   : AVC\r\nFormat settings, CABAC                   : Yes\r\nDuration                                 : 23 min 42 s\r\nBit rate                                 : 14.3 Mb/s\r\nMaximum bit rate                         : 15.0 Mb/s\r\nWidth                                    : 1 440 pixels\r\nHeight                                   : 1 080 pixels\r\nDisplay aspect ratio                     : 4:3\r\nFrame rate mode                          : Constant\r\nFrame rate                               : 23.976\r\nScan type                                : Progressive\r\nStream size                              : 2.36 GiB (98%)\r\nLanguage                                 : English\r\n\r\nAudio\r\nID                                       : 2\r\nFormat                                   : E-AC-3\r\nDuration                                 : 23 min 42 s\r\nBit rate mode                            : Constant\r\nBit rate                                 : 224 kb/s\r\nChannel(s)                               : 2 channels\r\nChannel positions                        : Front: L R\r\nSampling rate                            : 48.0 kHz\r\nStream size                              : 38.0 MiB (2%)\r\nLanguage                                 : English\r\n\r\nText\r\nID                                       : 3\r\nDuration                                 : 23 min 7 s\r\nBit rate                                 : 70 b/s\r\nStream size                              : 12.0 KiB (0%)\r\nLanguage                                 : English\r\n\r\nScreenshots:\r\n <a href=\"\nhttps://extraimage.net/image/To7D\" rel=\"nofollow\" target=\"_NEW\">\nhttps://extraimage.net/image/To7D</a> <a href=\"\nhttps://extraimage.net/image/To7F\" rel=\"nofollow\" target=\"_NEW\">\nhttps://extraimage.net/image/To7F</a> <a href=\"\nhttps://extraimage.net/image/To7H\" rel=\"nofollow\" target=\"_NEW\">\nhttps://extraimage.net/image/To7H</a>","last_updated":"2017-11-12T12:02:43.408Z","parsed":{"xt":"urn:btih:37a6075412652dd809de47d787e7523be2e3a6ee","dn":"13 Ghosts of Scooby-Doo 1985 S01 1080p AMZN WEBRip x264-CasStudi","tr":["udp://exodus.desync.com:6969","udp://open.demonii.com:1337","udp://tracker.coppersurfer.tk:6969","udp://tracker.leechers-paradise.org:6969","udp://zer0day.ch:1337"],"infoHash":"37a6075412652dd809de47d787e7523be2e3a6ee","infoHashBuffer":{"type":"Buffer","data":[55,166,7,84,18,101,45,216,9,222,71,215,135,231,82,59,226,227,166,238]},"name":"13 Ghosts of Scooby-Doo 1985 S01 1080p AMZN WEBRip x264-CasStudi","announce":["udp://exodus.desync.com:6969","udp://open.demonii.com:1337","udp://tracker.coppersurfer.tk:6969","udp://tracker.leechers-paradise.org:6969","udp://zer0day.ch:1337"],"urlList":[]}}